<?xml version="1.0" encoding="UTF-8"?>
<svg version="1.1" xmlns="http://www.w3.org/2000/svg" width="1024" height="1024">
<path d="M0 0 C337.92 0 675.84 0 1024 0 C1024 337.92 1024 675.84 1024 1024 C686.08 1024 348.16 1024 0 1024 C0 686.08 0 348.16 0 0 Z " fill="#F6F6F0" transform="translate(0,0)"/>
<path d="M0 0 C15.18 0 30.36 0 46 0 C46 9.24 46 18.48 46 28 C39.73 28 33.46 28 27 28 C27 121.39 27 214.78 27 311 C68.58 311 110.16 311 153 311 C153 296.48 153 281.96 153 267 C125.28 267 97.56 267 69 267 C69 178.89 69 90.78 69 0 C210.81088825 0 210.81088825 0 237 10 C237.66676758 10.24443848 238.33353516 10.48887695 239.02050781 10.74072266 C278.37116229 25.24934353 308.5195912 55.19373198 326 93 C330.6656694 103.94907091 333.61556602 115.3669427 336 127 C336.3403125 128.62228516 336.3403125 128.62228516 336.6875 130.27734375 C338.11160271 137.80333097 338 144.0782003 338 152 C329.09 152 320.18 152 311 152 C310.62875 148.4525 310.2575 144.905 309.875 141.25 C305.80177479 107.10419028 290.06256748 76.61960384 263 55 C250.5635063 45.6698791 237.33296599 39.33220533 222.6875 34.25 C221.89520996 33.96809814 221.10291992 33.68619629 220.28662109 33.39575195 C182.53311957 20.85991251 128.02358617 27.32677129 96 27 C96 97.62 96 168.24 96 241 C158.52790907 247.64489386 158.52790907 247.64489386 222.4609375 225.75 C236.39110245 211.31075926 238.19642433 194.83933232 240 175 C272.34 175 304.68 175 338 175 C338 212.79017124 330.55342561 248.17388363 306 278 C305.54753906 278.5578418 305.09507812 279.11568359 304.62890625 279.69042969 C287.39288559 300.86177484 265.69229854 317.33820454 240 327 C239.38850098 327.23960449 238.77700195 327.47920898 238.14697266 327.72607422 C217.18584425 335.91425839 196.49664755 338.15996673 174.14794922 338.11352539 C172.21435613 338.11321869 170.28076292 338.11335317 168.34716988 338.11389065 C163.19087399 338.11411548 158.03460154 338.10833916 152.87831116 338.10128021 C148.03158498 338.09556567 143.18486437 338.09531603 138.33813477 338.09460449 C124.18375343 338.08936685 110.02937642 338.07540562 95.875 338.0625 C64.23625 338.041875 32.5975 338.02125 0 338 C0 226.46 0 114.92 0 0 Z " fill="#101B37" transform="translate(345,253)"/>
<path d="M0 0 C70.30232558 0 70.30232558 0 88.109375 17.015625 C97.38111375 27.07982006 100.53549801 39.10741716 100.375 52.5625 C100.38660156 53.53896484 100.39820313 54.51542969 100.41015625 55.52148438 C100.38457827 61.8946645 99.41945959 67.11094202 97 73 C96.64679688 73.89589844 96.29359375 74.79179688 95.9296875 75.71484375 C89.90360521 88.41425421 80.07828741 96.52076115 67.43359375 102.140625 C59.39900444 104.97787965 52.22722021 105.26821384 43.75 105.1953125 C42.63753906 105.19329834 41.52507812 105.19128418 40.37890625 105.18920898 C36.25256178 105.17880313 32.12627643 105.15088084 28 105.125 C18.76 105.08375 9.52 105.0425 0 105 C0 70.35 0 35.7 0 0 Z " fill="#101A35" transform="translate(215,655)"/>
<path d="M0 0 C14.52 0 29.04 0 44 0 C44 24.61479046 31.18490063 48.05430621 15 66 C14.27224365 66.81621826 14.27224365 66.81621826 13.52978516 67.64892578 C1.02619595 81.45421422 -14.05245131 91.45150972 -31 99 C-32.01707031 99.46921875 -33.03414062 99.9384375 -34.08203125 100.421875 C-40.93408918 103.33153001 -48.01716497 105.13443479 -55.25 106.8125 C-56.15371338 107.03188232 -57.05742676 107.25126465 -57.98852539 107.47729492 C-67.0582478 109.45230173 -74.16168814 109 -84 109 C-84 94.81 -84 80.62 -84 66 C-77.73 65.34 -71.46 64.68 -65 64 C-61.3315874 63.0760295 -58.15142949 62.2162166 -54.6875 60.875 C-53.86121094 60.56788086 -53.03492188 60.26076172 -52.18359375 59.94433594 C-29.28833204 51.13641499 -15.49074897 36.38027211 -4.5078125 14.6796875 C-2.56694829 9.94317432 -1.34682989 4.93837627 0 0 Z " fill="#F5F5F0" transform="translate(610,455)"/>
<path d="M0 0 C0.90234375 0.33 1.8046875 0.66 2.734375 1 C4.9805764 1.89289994 7.10981945 2.87990551 9.25 4 C7.89746536 10.45054982 6.21939767 16.71105679 4.25 23 C0.6123033 22.36307476 -2.67485673 21.37236815 -6.125 20.0625 C-13.05379835 17.43674501 -19.35743996 15.6391866 -26.8125 15.625 C-27.8344043 15.58826172 -27.8344043 15.58826172 -28.87695312 15.55078125 C-33.99353137 15.52129089 -36.79621754 16.83932398 -40.75 20 C-43.10858628 22.35858628 -43.11946499 23.07631948 -43.25 26.3125 C-43.3015625 27.07175781 -43.353125 27.83101562 -43.40625 28.61328125 C-42.3882468 32.31566194 -39.92126021 34.10625971 -36.75 36 C-33.85059572 37.17404483 -30.9113529 37.94995518 -27.875 38.6875 C-27.11058594 38.88666016 -26.34617187 39.08582031 -25.55859375 39.29101562 C-22.58148791 40.06182826 -19.59679832 40.79710014 -16.60620117 41.51367188 C-4.83841756 44.36511249 6.14572165 48.87707128 12.8125 59.5625 C15.69059417 66.27363202 15.30242284 74.7155804 13.58984375 81.6875 C9.56346516 91.72730117 1.99586008 97.79642848 -7.75 102 C-22.11912171 107.32930717 -42.72156719 105.63163085 -56.52734375 99.3125 C-61.09681517 97.1262517 -65.53149145 94.81233903 -69.75 92 C-67.69235079 85.54646385 -65.32616518 79.2638737 -62.75 73 C-60.69780868 74.01216676 -58.66881017 75.04470002 -56.6640625 76.1484375 C-45.1666354 82.30917489 -32.84835522 85.78411195 -19.75 84 C-16.0126832 82.59537087 -12.59717288 80.84717288 -9.75 78 C-9.46229714 75.07502088 -9.26614686 72.84750353 -9.75 70 C-15.939393 63.06037755 -26.85804902 61.52593284 -35.48046875 59.33789062 C-46.18718224 56.53163584 -57.4624943 52.75719948 -63.75 43 C-67.62307927 35.9350997 -69.05512423 28.99262125 -67.75 21 C-64.50307419 11.12444451 -58.88007196 4.83363828 -50.1953125 -0.59765625 C-35.40281971 -7.79346237 -14.98365853 -5.54308755 0 0 Z " fill="#111B35" transform="translate(571.75,658)"/>
<path d="M0 0 C9.05947604 -0.0911663 18.11863654 -0.16420718 27.17847157 -0.20724869 C31.387468 -0.22792929 35.59612848 -0.25587854 39.80493164 -0.30175781 C71.38474816 -0.63678265 99.3655261 0.95913623 123.8515625 23.765625 C139.19181806 39.71949078 147 58.98933759 147 81 C138.42 81 129.84 81 121 81 C120.29875 78.1125 119.5975 75.225 118.875 72.25 C114.75221676 56.24197373 108.24787152 44.16311652 93.7421875 35.50390625 C85.20441789 30.82151124 78.1493312 28.87658944 68.34228516 28.79467773 C67.60013763 28.78477814 66.85799011 28.77487854 66.09335327 28.76467896 C63.6586213 28.73328083 61.22386986 28.70839303 58.7890625 28.68359375 C57.0936942 28.66300545 55.39833082 28.6420085 53.70297241 28.62062073 C49.25445554 28.56559369 44.80589384 28.5160995 40.3572998 28.46777344 C35.81237834 28.41741645 31.26752146 28.3618047 26.72265625 28.30664062 C17.81515745 28.19929614 8.90760337 28.09828513 0 28 C0 18.76 0 9.52 0 0 Z " fill="#131E38" transform="translate(464,324)"/>
<path d="M0 0 C11.63069706 -0.51076908 22.1436832 1.40970362 31.484375 8.921875 C37.81628622 15.14786206 40.09593511 23.24588929 40.47962952 31.96798706 C40.47740891 32.8962027 40.47518829 33.82441833 40.47290039 34.78076172 C40.47278709 36.37173172 40.47278709 36.37173172 40.47267151 37.99484253 C40.46751022 39.12318512 40.46234894 40.25152771 40.45703125 41.4140625 C40.4556163 42.5819632 40.45420135 43.74986389 40.45274353 44.95315552 C40.44715998 48.67192174 40.43461044 52.39062707 40.421875 56.109375 C40.41685788 58.6354158 40.41229534 61.16145754 40.40820312 63.6875 C40.39719593 69.86981502 40.37994255 76.05208469 40.359375 82.234375 C33.429375 82.234375 26.499375 82.234375 19.359375 82.234375 C18.864375 78.769375 18.864375 78.769375 18.359375 75.234375 C17.534375 75.9975 16.709375 76.760625 15.859375 77.546875 C7.66178827 84.19560893 -1.56848856 84.14637939 -11.640625 83.234375 C-18.83412639 81.45651344 -24.36913686 78.28465908 -28.828125 72.296875 C-32.63856734 65.8585414 -33.32221651 60.63603286 -32.640625 53.234375 C-30.72608403 47.08769083 -27.79422639 42.16186448 -22.26953125 38.78515625 C-15.70264347 35.37974193 -10.4507717 34.10282182 -3.02734375 34.13671875 C-1.78017578 34.13994141 -0.53300781 34.14316406 0.75195312 34.14648438 C2.04552734 34.15486328 3.33910156 34.16324219 4.671875 34.171875 C6.64124023 34.17864258 6.64124023 34.17864258 8.65039062 34.18554688 C11.8867651 34.19731551 15.12304678 34.2137574 18.359375 34.234375 C17.93342912 32.79340914 17.49310867 31.35668788 17.046875 29.921875 C16.80324219 29.12136719 16.55960938 28.32085938 16.30859375 27.49609375 C14.93492201 24.22302404 13.25779974 22.70982455 10.15234375 21.06640625 C6.63695821 20.01916552 3.30732413 19.89394306 -0.328125 19.921875 C-1.03420898 19.92388916 -1.74029297 19.92590332 -2.46777344 19.92797852 C-8.25828561 20.03841885 -13.21913329 21.20656899 -18.640625 23.234375 C-19.96953383 23.58493199 -21.30180902 23.92379382 -22.640625 24.234375 C-23.67575747 22.1581093 -24.69328711 20.07306021 -25.703125 17.984375 C-26.27160156 16.82421875 -26.84007812 15.6640625 -27.42578125 14.46875 C-28.640625 11.234375 -28.640625 11.234375 -28.55078125 8.9453125 C-26.33533733 4.78065827 -20.39982242 3.4966432 -16.203125 2.046875 C-10.77942898 0.8098917 -5.5310441 0.3560758 0 0 Z " fill="#111C35" transform="translate(685.640625,678.765625)"/>
<path d="M0 0 C8.50787693 6.85957983 11.97987486 14.44083673 13.16125488 25.43228149 C13.2698571 28.71888295 13.26405041 31.98177328 13.203125 35.26953125 C13.19746521 36.44972336 13.19180542 37.62991547 13.18597412 38.84587097 C13.16383049 42.56435113 13.11367539 46.28181793 13.0625 50 C13.04240658 52.54230366 13.02416084 55.08462263 13.0078125 57.62695312 C12.96746336 63.81449342 12.88912686 69.99988113 12.8125 76.1875 C5.2225 76.1875 -2.3675 76.1875 -10.1875 76.1875 C-10.22488281 72.743125 -10.26226562 69.29875 -10.30078125 65.75 C-10.34705281 62.39723526 -10.39826611 59.04457967 -10.44995117 55.69189453 C-10.48311153 53.37002245 -10.51117087 51.04807149 -10.53393555 48.72607422 C-10.56764472 45.37954232 -10.61997009 42.03372756 -10.67578125 38.6875 C-10.68217117 37.6569751 -10.6885611 36.6264502 -10.69514465 35.56469727 C-10.81892553 29.43378094 -11.58963062 24.76718413 -14.1875 19.1875 C-17.57893314 15.93417952 -22.15070349 14.93161977 -26.75 14.625 C-31.55861146 14.87372128 -34.96819643 16.62355079 -38.1875 20.1875 C-42.52172044 26.27911419 -42.78814546 31.23123214 -42.796875 38.58984375 C-42.81341125 39.66754532 -42.82994751 40.74524689 -42.84698486 41.85560608 C-42.89535206 45.27879603 -42.91681155 48.70154204 -42.9375 52.125 C-42.96566899 54.45379824 -42.99559771 56.7825759 -43.02734375 59.11132812 C-43.10440319 64.80358743 -43.14503046 70.49445834 -43.1875 76.1875 C-50.4475 76.1875 -57.7075 76.1875 -65.1875 76.1875 C-65.1875 49.4575 -65.1875 22.7275 -65.1875 -4.8125 C-57.9275 -4.8125 -50.6675 -4.8125 -43.1875 -4.8125 C-43.1875 -2.5025 -43.1875 -0.1925 -43.1875 2.1875 C-42.37925781 1.69378906 -41.57101562 1.20007813 -40.73828125 0.69140625 C-39.66964844 0.05074219 -38.60101563 -0.58992187 -37.5 -1.25 C-36.44425781 -1.88808594 -35.38851563 -2.52617188 -34.30078125 -3.18359375 C-23.40265396 -8.88562522 -9.75117849 -6.89276253 0 0 Z " fill="#131E37" transform="translate(478.1875,684.8125)"/>
<path d="M0 0 C7.59 0 15.18 0 23 0 C25.02258902 4.95762421 27.0437259 9.91582275 29.0625 14.875 C29.35934692 15.60397491 29.65619385 16.33294983 29.96203613 17.08401489 C33.7541556 26.40160645 37.51801353 35.72646618 41.08227539 45.13427734 C42.13185431 48.30986303 42.13185431 48.30986303 44 51 C44.32162109 50.1656543 44.64324219 49.33130859 44.97460938 48.47167969 C51.22148907 32.27524052 57.50969936 16.10093814 64 0 C71.26 0 78.52 0 86 0 C82.62612613 10.12162162 82.62612613 10.12162162 80.87890625 14.33984375 C80.50056641 15.25830078 80.12222656 16.17675781 79.73242188 17.12304688 C79.34634766 18.05181641 78.96027344 18.98058594 78.5625 19.9375 C77.79258277 21.80062179 77.02304926 23.6639022 76.25390625 25.52734375 C75.87443848 26.44499512 75.4949707 27.36264648 75.10400391 28.30810547 C74.07166944 30.82524829 73.06132658 33.34985365 72.05859375 35.87890625 C69.18397611 43.09289216 66.10824695 50.22259162 63.06640625 57.3671875 C60.96340021 62.31886376 58.87572528 67.27160832 56.89453125 72.2734375 C45.85794928 100.0472457 45.85794928 100.0472457 33 106 C22.72842428 108.5853626 12.48917523 107.60183011 3 103 C2.01 102.34 1.02 101.68 0 101 C0.65503282 96.94180817 1.94559121 93.46028718 3.5625 89.6875 C4.24505859 88.08455078 4.24505859 88.08455078 4.94140625 86.44921875 C5.46541016 85.23685547 5.46541016 85.23685547 6 84 C8.55051621 84.42508603 10.69616908 84.8430503 13.00390625 86.03515625 C16.80456588 87.8722657 20.89699595 87.64399902 25 87 C28.40388077 84.63812355 29.68750171 83.17245142 30.75268555 79.17602539 C31.0390545 75.49845997 30.40253936 73.6525602 28.89453125 70.30859375 C28.41113281 69.21272949 27.92773438 68.11686523 27.4296875 66.98779297 C26.89601563 65.81619629 26.36234375 64.64459961 25.8125 63.4375 C24.98406584 61.57296406 24.16133267 59.70597537 23.3387146 57.83886719 C22.76754694 56.54350723 22.19462431 55.2489198 21.62002563 53.95507812 C18.45339488 46.81395871 15.47187987 39.59880758 12.5 32.375 C12.00862549 31.18575928 11.51725098 29.99651855 11.01098633 28.77124023 C9.66823465 25.51648419 8.33234048 22.25902972 7 19 C6.443125 17.64503418 6.443125 17.64503418 5.875 16.26269531 C5.5346875 15.42577148 5.194375 14.58884766 4.84375 13.7265625 C4.41352539 12.67202881 4.41352539 12.67202881 3.97460938 11.59619141 C2.53852802 7.77071819 1.29215227 3.87645682 0 0 Z " fill="#101B35" transform="translate(319,681)"/>
<path d="M0 0 C7.59 0 15.18 0 23 0 C24.0725 2.59875 25.145 5.1975 26.25 7.875 C26.5790332 8.67147949 26.90806641 9.46795898 27.24707031 10.28857422 C30.3513257 17.81940294 33.37671043 25.37907549 36.32421875 32.97265625 C36.71287109 33.97361328 37.10152344 34.97457031 37.50195312 36.00585938 C38.30570299 38.07813043 39.10773221 40.15106953 39.90820312 42.22460938 C40.29298828 43.21396484 40.67777344 44.20332031 41.07421875 45.22265625 C41.42057373 46.11734619 41.76692871 47.01203613 42.1237793 47.93383789 C42.82753302 49.95250495 42.82753302 49.95250495 44 51 C44.44988281 49.79730469 44.89976562 48.59460938 45.36328125 47.35546875 C49.39610441 36.6389503 53.57057091 25.98547111 57.875 15.375 C58.35106689 14.19574951 58.82713379 13.01649902 59.31762695 11.80151367 C59.99184692 10.14792847 59.99184692 10.14792847 60.6796875 8.4609375 C61.07913574 7.47915527 61.47858398 6.49737305 61.89013672 5.48583984 C63 3 63 3 65 0 C67.15478516 -0.34057617 67.15478516 -0.34057617 69.7890625 -0.29296875 C70.73007812 -0.28330078 71.67109375 -0.27363281 72.640625 -0.26367188 C73.62546875 -0.23853516 74.6103125 -0.21339844 75.625 -0.1875 C77.11386719 -0.16719727 77.11386719 -0.16719727 78.6328125 -0.14648438 C81.08908072 -0.11105743 83.54427285 -0.06166196 86 0 C85.41260626 4.67084176 84.10469793 8.45935956 82.1875 12.75 C80.46530914 16.62824985 78.78608873 20.50268788 77.2265625 24.44921875 C74.63490922 30.97749013 71.86700087 37.43057306 69.112854 43.89138794 C63.9963183 55.8960611 58.92738724 67.91616938 54 80 C46.74 80 39.48 80 32 80 C27.53960396 71.07920792 27.53960396 71.07920792 26.0625 66.75 C23.26889334 58.84933116 20.02011424 51.16550537 16.5 43.5625 C14.19187085 38.54231909 12.20688631 33.4327572 10.25390625 28.265625 C9.0345386 25.08995099 7.7526595 21.94957772 6.4375 18.8125 C6.03015625 17.84054687 5.6228125 16.86859375 5.203125 15.8671875 C4.80609375 14.92101562 4.4090625 13.97484375 4 13 C3.22303242 11.14839544 2.45178002 9.29437751 1.6875 7.4375 C1.36136719 6.65246094 1.03523437 5.86742187 0.69921875 5.05859375 C0 3 0 3 0 0 Z " fill="#111C35" transform="translate(731,681)"/>
<path d="M0 0 C35.88898026 0 35.88898026 0 46.8984375 10.625 C53.4372073 18.0145391 54.37509138 25.97018077 54.27734375 35.58203125 C53.59950476 43.93568077 50.2042507 52.25442931 44 58 C31.06495137 68.8274209 16.92687917 65 0 65 C0 43.55 0 22.1 0 0 Z " fill="#F5F6F0" transform="translate(238,675)"/>
<path d="M0 0 C7.26 0 14.52 0 22 0 C22 6.6 22 13.2 22 20 C28.6 20 35.2 20 42 20 C42 25.94 42 31.88 42 38 C35.4 38 28.8 38 22 38 C22.07409997 43.03624266 22.15701416 48.07074118 22.26245117 53.10620117 C22.29564169 54.81802238 22.32369189 56.52995148 22.34643555 58.24194336 C22.38009032 60.70733479 22.43240974 63.17174281 22.48828125 65.63671875 C22.49467117 66.39836838 22.5010611 67.16001801 22.50764465 67.94474792 C22.64330056 72.88167723 23.43832266 76.43832266 27 80 C32.07345565 80.25367278 35.30957349 80.07461173 40 78 C45.55580866 89.52164009 45.55580866 89.52164009 46 95 C44.58521865 95.64995297 43.16808513 96.29478722 41.75 96.9375 C40.96109375 97.29714844 40.1721875 97.65679688 39.359375 98.02734375 C32.13918784 101.00387786 23.56421782 101.30232348 16.0703125 99.1640625 C10.03121841 96.42903205 6.30702221 92.69714418 3 87 C2.48518066 86.17153564 1.97036133 85.34307129 1.43994141 84.48950195 C-0.46558042 79.87172923 -0.37708857 75.94946199 -0.29296875 71.0078125 C-0.28872391 70.06187225 -0.28447906 69.11593201 -0.28010559 68.1413269 C-0.26338306 65.13558867 -0.22574263 62.1305338 -0.1875 59.125 C-0.17244486 57.08073889 -0.15875791 55.03646721 -0.14648438 52.9921875 C-0.11350055 47.99453046 -0.06176253 42.99738089 0 38 C-3.96 38 -7.92 38 -12 38 C-12 32.06 -12 26.12 -12 20 C-8.04 20 -4.08 20 0 20 C0 13.4 0 6.8 0 0 Z " fill="#0F1A34" transform="translate(602,662)"/>
<path d="M0 0 C0.88945313 0.00322266 1.77890625 0.00644531 2.6953125 0.00976562 C4.07589844 0.02233398 4.07589844 0.02233398 5.484375 0.03515625 C6.42023437 0.03966797 7.35609375 0.04417969 8.3203125 0.04882812 C10.62506541 0.06058707 12.92968727 0.07702199 15.234375 0.09765625 C15.405375 9.34115625 15.405375 9.34115625 12.234375 14.09765625 C8.00905218 18.36915746 4.37359581 20.23797441 -1.640625 20.34765625 C-5.83708199 20.30483526 -8.46128054 19.88569688 -11.765625 17.09765625 C-14.21683897 13.4208353 -14.58981262 10.36844662 -13.765625 6.09765625 C-9.73027278 0.82927973 -6.35251847 -0.04072127 0 0 Z " fill="#EEEFEB" transform="translate(688.765625,725.90234375)"/>
<path d="M0 0 C0.66 1.32 1.32 2.64 2 4 C0.56342755 4.33730842 -0.87430093 4.66969591 -2.3125 5 C-3.51326172 5.2784375 -3.51326172 5.2784375 -4.73828125 5.5625 C-7 6 -7 6 -10 6 C-10 9.3 -10 12.6 -10 16 C-5.38 16 -0.76 16 4 16 C4 17.32 4 18.64 4 20 C-0.62 20 -5.24 20 -10 20 C-10 25.94 -10 31.88 -10 38 C-11.65 38 -13.3 38 -15 38 C-15 32.06 -15 26.12 -15 20 C-19.62 20 -24.24 20 -29 20 C-29 18.68 -29 17.36 -29 16 C-24.38 16 -19.76 16 -15 16 C-15 13.03 -15 10.06 -15 7 C-20.94 7.495 -20.94 7.495 -27 8 C-27.33 6.68 -27.66 5.36 -28 4 C-14.14 2.02 -14.14 2.02 0 0 Z " fill="#FBFAF8" transform="translate(828,949)"/>
<path d="M0 0 C1.04414062 0.16886719 2.08828125 0.33773437 3.1640625 0.51171875 C8.3806927 8.38918046 8.3806927 8.38918046 7.4765625 13.07421875 C6.826875 14.28078125 6.826875 14.28078125 6.1640625 15.51171875 C5.1121875 15.49109375 4.0603125 15.47046875 2.9765625 15.44921875 C-0.8539941 16.10359363 -0.8539941 16.10359363 -2.4140625 18.58203125 C-3.65572717 20.85841648 -4.79504094 23.13732337 -5.8359375 25.51171875 C-9.2109375 25.69921875 -9.2109375 25.69921875 -12.8359375 25.51171875 C-14.8359375 22.51171875 -14.8359375 22.51171875 -14.75 20.375 C-13.41141315 16.18190529 -11.38025842 12.51632768 -9.2109375 8.69921875 C-8.79714844 7.91095703 -8.38335938 7.12269531 -7.95703125 6.31054688 C-4.7206966 0.6297467 -4.7206966 0.6297467 0 0 Z " fill="#FBFBF9" transform="translate(780.8359375,963.48828125)"/>
<path d="M0 0 C0.9075 0.12375 1.815 0.2475 2.75 0.375 C3.41 2.025 4.07 3.675 4.75 5.375 C5.66523437 5.34019531 6.58046875 5.30539062 7.5234375 5.26953125 C8.71195313 5.24246094 9.90046875 5.21539063 11.125 5.1875 C12.30835938 5.15269531 13.49171875 5.11789062 14.7109375 5.08203125 C16.21527344 5.22705078 16.21527344 5.22705078 17.75 5.375 C19.75 8.375 19.75 8.375 19.4375 10.9375 C18.75 13.375 18.75 13.375 17.75 15.375 C13.81274674 15.49094584 9.87593077 15.56216464 5.9375 15.625 C4.81794922 15.65851562 3.69839844 15.69203125 2.54492188 15.7265625 C1.47177734 15.73945312 0.39863281 15.75234375 -0.70703125 15.765625 C-2.1916687 15.7970459 -2.1916687 15.7970459 -3.70629883 15.82910156 C-6.25 15.375 -6.25 15.375 -8.1315918 13.49902344 C-9.25 11.375 -9.25 11.375 -8.6875 9 C-8.213125 8.13375 -7.73875 7.2675 -7.25 6.375 C-6.6725 5.281875 -6.095 4.18875 -5.5 3.0625 C-3.25 0.375 -3.25 0.375 0 0 Z " fill="#FBFBF9" transform="translate(764.25,945.625)"/>
<path d="M0 0 C3.12109375 -0.5703125 3.12109375 -0.5703125 7 0 C9.62394903 2.69343177 11.28380314 5.83308342 13.0625 9.125 C13.57232422 9.9809375 14.08214844 10.836875 14.60742188 11.71875 C18.17802183 18.06865416 18.17802183 18.06865416 17.30859375 22.6171875 C16.87675781 23.40351562 16.44492187 24.18984375 16 25 C13.87561661 25.08078641 11.7503677 25.13909141 9.625 25.1875 C8.44164062 25.22230469 7.25828125 25.25710938 6.0390625 25.29296875 C4.53472656 25.14794922 4.53472656 25.14794922 3 25 C1 22 1 22 1.375 19.5625 C1.684375 18.2940625 1.684375 18.2940625 2 17 C2 13.06232432 1.94327081 12.49165816 -0.0625 9.5 C-2.02246725 6.2770961 -2.02246725 6.2770961 -1.8125 3.6875 C-1.21833601 2.4534671 -0.61251417 1.22502834 0 0 Z " fill="#FBFBF9" transform="translate(747,959)"/>
<path d="M0 0 C1.65 0 3.3 0 5 0 C5 11.88 5 23.76 5 36 C3.35 36 1.7 36 0 36 C0 24.12 0 12.24 0 0 Z " fill="#FBFBF9" transform="translate(906,950)"/>
<path d="M0 0 C4.29 0 8.58 0 13 0 C17.01550507 15.22545671 17.01550507 15.22545671 14.46875 19.67578125 C13.8190625 20.54589844 13.169375 21.41601562 12.5 22.3125 C11.52546875 23.63701172 11.52546875 23.63701172 10.53125 24.98828125 C9.77328125 25.98408203 9.77328125 25.98408203 9 27 C8.67 26.34 8.34 25.68 8 25 C5.97536745 24.34786708 5.97536745 24.34786708 4 24 C5.65 24 7.3 24 9 24 C9 17.73 9 11.46 9 5 C6.03 5 3.06 5 0 5 C0 3.35 0 1.7 0 0 Z " fill="#F4F4F0" transform="translate(963,959)"/>
<path d="M0 0 C4.29 0 8.58 0 13 0 C12.67 1.32 12.34 2.64 12 4 C12 3.01 12 2.02 12 1 C8.37 1 4.74 1 1 1 C1 1.99 1 2.98 1 4 C1.95712891 3.98259766 1.95712891 3.98259766 2.93359375 3.96484375 C4.17302734 3.95130859 4.17302734 3.95130859 5.4375 3.9375 C6.26121094 3.92589844 7.08492187 3.91429687 7.93359375 3.90234375 C10 4 10 4 11 5 C11.07271741 7.35313555 11.08370868 9.70833668 11.0625 12.0625 C11.05347656 13.35285156 11.04445313 14.64320313 11.03515625 15.97265625 C11.02355469 16.97167969 11.01195312 17.97070312 11 19 C11.99 18.67 12.98 18.34 14 18 C12.68775452 21.93673644 11.08089673 24.22719294 8 27 C8 26.34 8 25.68 8 25 C6.68 24.67 5.36 24.34 4 24 C5.65 24 7.3 24 9 24 C9 17.73 9 11.46 9 5 C6.03 5 3.06 5 0 5 C0 3.35 0 1.7 0 0 Z " fill="#E8E8E4" transform="translate(963,959)"/>
<path d="M0 0 C2.31 0 4.62 0 7 0 C7 3.3 7 6.6 7 10 C4.69 10 2.38 10 0 10 C0 6.7 0 3.4 0 0 Z " fill="#E9E9E5" transform="translate(850,964)"/>
<path d="M0 0 C0.5710144 0.7266687 0.5710144 0.7266687 1.15356445 1.46801758 C3.65564466 3.54398655 5.31802123 3.42640268 8.54296875 3.51171875 C10.15268555 3.56489258 10.15268555 3.56489258 11.79492188 3.61914062 C12.91447266 3.64169922 14.03402344 3.66425781 15.1875 3.6875 C16.88422852 3.73874023 16.88422852 3.73874023 18.61523438 3.79101562 C21.4100574 3.87356314 24.20456398 3.94269182 27 4 C27.33 3.01 27.66 2.02 28 1 C29.08744934 3.17489867 29 4.58411219 29 7 C26.69 7 24.38 7 22 7 C21.67 7.99 21.34 8.98 21 10 C20.67 9.34 20.34 8.68 20 8 C20.33 7.01 20.66 6.02 21 5 C19.73542969 5.0721875 18.47085938 5.144375 17.16796875 5.21875 C15.50781499 5.312544 13.8476586 5.40629158 12.1875 5.5 C11.35412109 5.54769531 10.52074219 5.59539063 9.66210938 5.64453125 C8.85966797 5.68964844 8.05722656 5.73476563 7.23046875 5.78125 C6.49207764 5.82314453 5.75368652 5.86503906 4.99291992 5.90820312 C3.33009506 5.98479533 1.6645879 6 0 6 C-0.66 4.35 -1.32 2.7 -2 1 C-1.34 0.67 -0.68 0.34 0 0 Z " fill="#E6E7E2" transform="translate(755,957)"/>
<path d="M0 0 C2.00293347 3.00440021 2.49271626 4.70993945 3.125 8.1875 C3.29257812 9.08855469 3.46015625 9.98960937 3.6328125 10.91796875 C3.75398437 11.60503906 3.87515625 12.29210937 4 13 C1.69 13 -0.62 13 -3 13 C-2.45144652 8.428721 -1.58255197 4.32564205 0 0 Z " fill="#EBEBE7" transform="translate(889,957)"/>
<path d="M0 0 C5.28 0 10.56 0 16 0 C16 9.24 16 18.48 16 28 C14.68 28 13.36 28 12 28 C12 27.34 12 26.68 12 26 C12.66 25.67 13.32 25.34 14 25 C14.33 17.08 14.66 9.16 15 1 C10.05 1 5.1 1 0 1 C0 0.67 0 0.34 0 0 Z " fill="#E0E0DC" transform="translate(849,955)"/>
<path d="M0 0 C0 0.33 0 0.66 0 1 C-1.4540625 1.0309375 -1.4540625 1.0309375 -2.9375 1.0625 C-8.32747613 1.76938212 -12.02859755 5.55091352 -16 9 C-16.33 8.01 -16.66 7.02 -17 6 C-11.44026077 0.90988452 -7.56125628 -0.94515703 0 0 Z " fill="#D5D8DA" transform="translate(456,699)"/>
<path d="M0 0 C2.97 0 5.94 0 9 0 C8.01 1.485 8.01 1.485 7 3 C6.34 3 5.68 3 5 3 C4.34 4.65 3.68 6.3 3 8 C1.0549 5.08235 0.54723683 3.37462715 0 0 Z " fill="#E9E9E5" transform="translate(980,959)"/>
<path d="M0 0 C0.33 0 0.66 0 1 0 C1 2.97 1 5.94 1 9 C1.99 9 2.98 9 4 9 C4 6.03 4 3.06 4 0 C4.33 0 4.66 0 5 0 C5 3.3 5 6.6 5 10 C4.01 10 3.02 10 2 10 C1.34 11.98 0.68 13.96 0 16 C-0.33 16 -0.66 16 -1 16 C-0.67 10.72 -0.34 5.44 0 0 Z " fill="#E2E2DD" transform="translate(963,969)"/>
<path d="M0 0 C9.57 0 19.14 0 29 0 C29 0.33 29 0.66 29 1 C27.84213989 1.03758423 27.84213989 1.03758423 26.66088867 1.07592773 C23.16958819 1.19184007 19.67856078 1.31458824 16.1875 1.4375 C14.97255859 1.47681641 13.75761719 1.51613281 12.50585938 1.55664062 C11.34248047 1.59853516 10.17910156 1.64042969 8.98046875 1.68359375 C7.90692139 1.72025146 6.83337402 1.75690918 5.72729492 1.79467773 C2.90688447 1.89541847 2.90688447 1.89541847 0 3 C0 2.01 0 1.02 0 0 Z " fill="#0C1326" transform="translate(345,254)"/>
<path d="M0 0 C1.65 0 3.3 0 5 0 C4.67 3.3 4.34 6.6 4 10 C3.01 10 2.02 10 1 10 C0.67 6.7 0.34 3.4 0 0 Z " fill="#F4F4EF" transform="translate(963,968)"/>
<path d="M0 0 C2.0625 0.4375 2.0625 0.4375 4 1 C4 2.98 4 4.96 4 7 C2.35 6.67 0.7 6.34 -1 6 C-1.042721 4.33388095 -1.04063832 2.66617115 -1 1 C-0.67 0.67 -0.34 0.34 0 0 Z " fill="#F7F6F1" transform="translate(852,966)"/>
<path d="M0 0 C2.3125 -0.25 2.3125 -0.25 5 0 C6.97610386 2.04424538 8 3.1176825 8 6 C6.35 6 4.7 6 3 6 C2.01 4.02 1.02 2.04 0 0 Z " fill="#FBFAF9" transform="translate(837,949)"/>
<path d="M0 0 C0 3.62850626 -1.06953668 5.86167278 -2.5 9.1875 C-2.9640625 10.27417969 -3.428125 11.36085938 -3.90625 12.48046875 C-4.2671875 13.31191406 -4.628125 14.14335938 -5 15 C-5.33 15 -5.66 15 -6 15 C-5.46147465 9.72245155 -4.34981281 5.69962561 -2 1 C-1.34 0.67 -0.68 0.34 0 0 Z " fill="#212938" transform="translate(391,714)"/>
<path d="M0 0 C0.33 0 0.66 0 1 0 C1 4.62 1 9.24 1 14 C1.99 13.67 2.98 13.34 4 13 C2.25 17.875 2.25 17.875 0 19 C0 12.73 0 6.46 0 0 Z " fill="#E6E5E1" transform="translate(973,964)"/>
<path d="M0 0 C0.33 0.99 0.66 1.98 1 3 C-0.43359375 5.48046875 -0.43359375 5.48046875 -2.4375 8.1875 C-3.09621094 9.08855469 -3.75492188 9.98960937 -4.43359375 10.91796875 C-5.20896484 11.94857422 -5.20896484 11.94857422 -6 13 C-6.33 12.01 -6.66 11.02 -7 10 C-5.56640625 7.51953125 -5.56640625 7.51953125 -3.5625 4.8125 C-2.90378906 3.91144531 -2.24507812 3.01039063 -1.56640625 2.08203125 C-1.04949219 1.39496094 -0.53257812 0.70789063 0 0 Z " fill="#1C2335" transform="translate(658,517)"/>
<path d="M0 0 C0.33 0.99 0.66 1.98 1 3 C-0.23553276 4.20254524 -1.48902339 5.38666232 -2.75 6.5625 C-3.79414063 7.55443359 -3.79414063 7.55443359 -4.859375 8.56640625 C-7 10 -7 10 -9.265625 9.71484375 C-9.83796875 9.47894531 -10.4103125 9.24304688 -11 9 C-9.9275 8.443125 -8.855 7.88625 -7.75 7.3125 C-4.35083445 5.3888343 -2.24604279 3.23430162 0 0 Z " fill="#3B404F" transform="translate(286,727)"/>
<path d="M0 0 C-1.45804169 0.81302325 -2.91644315 1.62540131 -4.375 2.4375 C-5.18710937 2.88996094 -5.99921875 3.34242188 -6.8359375 3.80859375 C-8.20996622 4.5650536 -9.59709261 5.29854631 -11 6 C-11.66 5.34 -12.32 4.68 -13 4 C-11.59248779 3.13083113 -10.1735479 2.28014851 -8.75 1.4375 C-7.96109375 0.96183594 -7.1721875 0.48617187 -6.359375 -0.00390625 C-3.69155375 -1.13022151 -2.65498232 -1.0169313 0 0 Z " fill="#363D4A" transform="translate(670,683)"/>
<path d="M0 0 C0.66 0.33 1.32 0.66 2 1 C1.07456291 2.34173403 0.13422595 3.67320159 -0.8125 5 C-1.33457031 5.7425 -1.85664063 6.485 -2.39453125 7.25 C-2.92433594 7.8275 -3.45414062 8.405 -4 9 C-4.99 9 -5.98 9 -7 9 C-6.02180976 7.68677212 -5.0424189 6.37443848 -4.0625 5.0625 C-3.51722656 4.33160156 -2.97195313 3.60070312 -2.41015625 2.84765625 C-1 1 -1 1 0 0 Z " fill="#192135" transform="translate(306,735)"/>
<path d="M0 0 C4.95 0 9.9 0 15 0 C15 0.33 15 0.66 15 1 C14.25234375 1.03738281 13.5046875 1.07476562 12.734375 1.11328125 C11.74953125 1.17902344 10.7646875 1.24476563 9.75 1.3125 C8.77546875 1.37050781 7.8009375 1.42851562 6.796875 1.48828125 C3.74658389 2.04636524 2.29288724 2.96369776 0 5 C0 3.35 0 1.7 0 0 Z " fill="#091126" transform="translate(465,325)"/>
<path d="M0 0 C0.33 0.99 0.66 1.98 1 3 C-0.06716072 4.20205464 -1.15438337 5.38632333 -2.25 6.5625 C-3.15492188 7.55443359 -3.15492188 7.55443359 -4.078125 8.56640625 C-6 10 -6 10 -8.234375 9.71484375 C-8.81703125 9.47894531 -9.3996875 9.24304688 -10 9 C-8.63875 8.1646875 -8.63875 8.1646875 -7.25 7.3125 C-4.15546609 5.1106201 -2.20718532 3.05610275 0 0 Z " fill="#D1D4D5" transform="translate(365,775)"/>
<path d="M0 0 C1.65 0 3.3 0 5 0 C4.51917969 0.35707031 4.03835938 0.71414063 3.54296875 1.08203125 C1.31575162 3.85054672 1.48605989 6.18159023 1.3125 9.6875 C1.24675781 10.86699219 1.18101562 12.04648437 1.11328125 13.26171875 C1.07589844 14.16535156 1.03851562 15.06898438 1 16 C0.67 16 0.34 16 0 16 C0 10.72 0 5.44 0 0 Z " fill="#091023" transform="translate(591,683)"/>
<path d="M0 0 C0.99 0.33 1.98 0.66 3 1 C3 1.66 3 2.32 3 3 C4.423125 2.690625 4.423125 2.690625 5.875 2.375 C6.90625 2.25125 7.9375 2.1275 9 2 C9.66 2.66 10.32 3.32 11 4 C7.37 4 3.74 4 0 4 C0 2.68 0 1.36 0 0 Z " fill="#E4E4E0" transform="translate(979,950)"/>
<path d="M0 0 C0.66 0 1.32 0 2 0 C2 0.99 2 1.98 2 3 C-2.12168689 4.62950412 -4.70700357 5.26264601 -9 4 C-9 3.67 -9 3.34 -9 3 C-8.43410156 2.86722656 -7.86820313 2.73445312 -7.28515625 2.59765625 C-6.18494141 2.33275391 -6.18494141 2.33275391 -5.0625 2.0625 C-4.33160156 1.88847656 -3.60070312 1.71445312 -2.84765625 1.53515625 C-1.00030102 1.16112431 -1.00030102 1.16112431 0 0 Z " fill="#333A47" transform="translate(640,740)"/>
<path d="M0 0 C5.859375 -0.390625 5.859375 -0.390625 8 0 C9.32 1.32 10.64 2.64 12 4 C6.06 2.515 6.06 2.515 0 1 C0 0.67 0 0.34 0 0 Z " fill="#D3D6D9" transform="translate(273,656)"/>
<path d="M0 0 C0.66 0 1.32 0 2 0 C2 0.66 2 1.32 2 2 C2.99 1.67 3.98 1.34 5 1 C5 1.99 5 2.98 5 4 C3.35 4.66 1.7 5.32 0 6 C0 4.02 0 2.04 0 0 Z " fill="#EBEAE3" transform="translate(343,222)"/>
<path d="M0 0 C-1.28519565 2.86697492 -2.57129254 4.97607712 -5 7 C-5.66 7 -6.32 7 -7 7 C-3.86206897 0 -3.86206897 0 0 0 Z " fill="#1B2437" transform="translate(632,549)"/>
<path d="M0 0 C0.99 0.33 1.98 0.66 3 1 C2.34 3.31 1.68 5.62 1 8 C0.01 7.34 -0.98 6.68 -2 6 C-1.34 4.02 -0.68 2.04 0 0 Z " fill="#E7E7E3" transform="translate(765,978)"/>
<path d="M0 0 C-0.33 0.99 -0.66 1.98 -1 3 C-4.5625 4.1875 -4.5625 4.1875 -8 5 C-7 2 -7 2 -5.125 0.8125 C-3 0 -3 0 0 0 Z " fill="#262E3D" transform="translate(597,573)"/>
<path d="M0 0 C0.66 0.66 1.32 1.32 2 2 C1.67 2.66 1.34 3.32 1 4 C1.39938767 6.09821215 1.39938767 6.09821215 2 8 C1.01 7.67 0.02 7.34 -1 7 C-1.33 5.02 -1.66 3.04 -2 1 C-1.34 0.67 -0.68 0.34 0 0 Z " fill="#EDEBE5" transform="translate(263,451)"/>
<path d="M0 0 C0.33 0.66 0.66 1.32 1 2 C0.06553465 4.03144641 -0.93224776 6.03533587 -2 8 C-2.66 8 -3.32 8 -4 8 C-2.25 2.25 -2.25 2.25 0 0 Z " fill="#2A303B" transform="translate(506,742)"/>
</svg>
